<svg xmlns="http://www.w3.org/2000/svg" width="1000" height="560" viewBox="0 0 1000 560"><defs><linearGradient id="g" x1="0" x2="1"><stop stop-color="#3B0764"/><stop offset="1" stop-color="#7C2D12"/></linearGradient></defs><rect width="1000" height="560" rx="28" fill="url(#g)"/><rect x="35" y="35" width="930" height="70" rx="16" fill="#4C1D95" stroke="#F0ABFC"/><text x="65" y="80" fill="white" font-size="30" font-family="Arial" font-weight="700">Food Redistribution • Impact Flow</text><g font-family="Arial" text-anchor="middle"><rect x="55" y="190" width="180" height="105" rx="20" fill="#7C2D12" stroke="#FDBA74"/><text x="145" y="232" fill="white" font-size="20">FOOD DONORS</text><text x="145" y="260" fill="#FED7AA" font-size="14">Hotels • Events</text><rect x="290" y="190" width="180" height="105" rx="20" fill="#4C1D95" stroke="#D8B4FE"/><text x="380" y="232" fill="white" font-size="20">MATCHING</text><text x="380" y="260" fill="#E9D5FF" font-size="14">Location + Need</text><rect x="525" y="190" width="180" height="105" rx="20" fill="#075985" stroke="#7DD3FC"/><text x="615" y="232" fill="white" font-size="20">VOLUNTEERS</text><text x="615" y="260" fill="#BAE6FD" font-size="14">Pickup + Delivery</text><rect x="760" y="190" width="180" height="105" rx="20" fill="#166534" stroke="#86EFAC"/><text x="850" y="232" fill="white" font-size="20">NGOs</text><text x="850" y="260" fill="#BBF7D0" font-size="14">Redistribution</text></g><g stroke="#FDE68A" stroke-width="5" fill="none"><path d="M235 242h55"/><path d="M470 242h55"/><path d="M705 242h55"/></g><g fill="#FDE68A"><path d="M280 232l18 10-18 10z"/><path d="M515 232l18 10-18 10z"/><path d="M750 232l18 10-18 10z"/></g><rect x="100" y="350" width="800" height="120" rx="22" fill="#0F172A" opacity=".85" stroke="#F0ABFC"/><text x="500" y="390" fill="#FDE68A" font-size="21" text-anchor="middle" font-family="Arial" font-weight="700">GOAL</text><text x="500" y="425" fill="white" font-size="24" text-anchor="middle" font-family="Arial">Reduce food waste • Improve pickup coordination • Support communities</text></svg>
